<svg xmlns="http://www.w3.org/2000/svg" style="display: none;">
  <defs>
    <symbol id="Vector" width="72" height="72" fill="none" viewBox="0 0 72 72">
      <mask id="a" width="72" height="72" x="0" y="0" fill="#000" maskUnits="userSpaceOnUse">
        <path fill="#fff" d="M0 0h72v72H0z"/>
        <path d="M59.105 1c.74.403.976 1.019.972 1.86-.027 5.56-.014 11.117-.014 16.677 0 .183.009.367-.01.547-.069.746-.63 1.28-1.344 1.287-.741.007-1.337-.543-1.372-1.325-.03-.727-.01-1.459-.01-2.188v-6.684H14.722v3.762h30.613c1.465 0 1.876.407 1.876 1.858v18.728c0 1.41-.43 1.847-1.826 1.847H14.722v30.856h42.572v-4.582h-30.55c-1.591 0-1.953-.368-1.953-1.984V43c0-1.34.459-1.792 1.818-1.792H57.33v-.747c0-2.644-.003-5.287.002-7.928 0-.817.349-1.33 1.003-1.524.902-.268 1.72.414 1.726 1.47.01 2.644.003 5.287.003 7.929v.802h1.96c2.37 0 4.74.025 7.109-.015.835-.014 1.456.234 1.87.961v20.508c-.369.773-.99 1.004-1.826.995-2.771-.035-5.542-.013-8.313-.013h-.8c0 1.885-.032 3.697.015 5.506.022.84-.237 1.449-.972 1.852H12.894c-.74-.403-.974-1.017-.972-1.858.022-10.318.014-20.635.014-30.953v-.822c-3.148 0-6.199.002-9.247 0-1.21 0-1.688-.487-1.688-1.708V16.599c0-1.174.484-1.655 1.662-1.657 2.552-.004 5.102 0 7.653 0h1.62v-.802c0-3.76.02-7.516-.014-11.275-.007-.84.23-1.457.972-1.858h46.212V1ZM3.765 34.585h40.66V17.707H3.764v16.878Zm23.79 26.272H68.21V43.98H27.555v16.878ZM46.494 3.773H14.718v4.56h31.776v-4.56Zm10.805.01h-7.982v4.565H57.3V3.784Z"/>
      </mask>
      <path fill="#FD6F00" d="M59.105 1c.74.403.976 1.019.972 1.86-.027 5.56-.014 11.117-.014 16.677 0 .183.009.367-.01.547-.069.746-.63 1.28-1.344 1.287-.741.007-1.337-.543-1.372-1.325-.03-.727-.01-1.459-.01-2.188v-6.684H14.722v3.762h30.613c1.465 0 1.876.407 1.876 1.858v18.728c0 1.41-.43 1.847-1.826 1.847H14.722v30.856h42.572v-4.582h-30.55c-1.591 0-1.953-.368-1.953-1.984V43c0-1.34.459-1.792 1.818-1.792H57.33v-.747c0-2.644-.003-5.287.002-7.928 0-.817.349-1.33 1.003-1.524.902-.268 1.72.414 1.726 1.47.01 2.644.003 5.287.003 7.929v.802h1.96c2.37 0 4.74.025 7.109-.015.835-.014 1.456.234 1.87.961v20.508c-.369.773-.99 1.004-1.826.995-2.771-.035-5.542-.013-8.313-.013h-.8c0 1.885-.032 3.697.015 5.506.022.84-.237 1.449-.972 1.852H12.894c-.74-.403-.974-1.017-.972-1.858.022-10.318.014-20.635.014-30.953v-.822c-3.148 0-6.199.002-9.247 0-1.21 0-1.688-.487-1.688-1.708V16.599c0-1.174.484-1.655 1.662-1.657 2.552-.004 5.102 0 7.653 0h1.62v-.802c0-3.76.02-7.516-.014-11.275-.007-.84.23-1.457.972-1.858h46.212V1ZM3.765 34.585h40.66V17.707H3.764v16.878Zm23.79 26.272H68.21V43.98H27.555v16.878ZM46.494 3.773H14.718v4.56h31.776v-4.56Zm10.805.01h-7.982v4.565H57.3V3.784Z"/>
      <path fill="#FD6F00" d="m59.105 1 .24-.44-.74-.402V1h.5Zm.972 1.86.5.002-.5-.003Zm-.024 17.224-.497-.05v.004l.497.046Zm-1.344 1.287.005.5-.005-.5Zm-1.372-1.325-.5.021v.001l.5-.022Zm-.01-8.872h.5v-.5h-.5v.5Zm-42.605 0v-.5h-.5v.5h.5Zm0 3.762h-.5v.5h.5v-.5Zm0 22.433v-.5h-.5v.5h.5Zm0 30.856h-.5v.5h.5v-.5Zm42.572 0v.5h.5v-.5h-.5Zm0-4.582h.5v-.5h-.5v.5Zm.036-22.435v.5h.5v-.5h-.5Zm.002-8.675h.5-.5Zm1.003-1.524.141.48h.001l-.142-.48Zm1.726 1.47.5-.001-.5.002Zm.003 8.73h-.5v.5h.5v-.5Zm9.069-.014.008.5-.008-.5Zm1.87.961h.5v-.133l-.065-.115-.435.248Zm0 20.508.451.215.05-.102v-.113h-.5Zm-1.826.995-.007.5h.001l.006-.5Zm-9.113-.013v-.5h-.5v.5h.5Zm.015 5.506.5-.014-.5.014Zm-.972 1.852v.5h.129l.112-.062-.24-.438Zm-46.213 0-.24.439.112.06h.128v-.5Zm-.972-1.858.5.001h-.5Zm.014-31.775h.5v-.5h-.5v.5Zm-9.247 0v-.5.5Zm-1.688-1.708h.5-.5Zm0-19.064h.5-.5Zm1.662-1.657v-.5.5Zm9.274 0v.5h.5v-.5h-.5Zm-.015-12.077-.5.004.5-.004Zm.972-1.858v-.5h-.127l-.111.06.238.44Zm46.212 0v.5h.5v-.5h-.5ZM3.764 34.585h-.5v.5h.5v-.5Zm40.66 0v.5h.5v-.5h-.5Zm0-16.878h.5v-.5h-.5v.5Zm-40.66 0v-.5h-.5v.5h.5Zm23.79 43.15h-.5v.5h.5v-.5Zm40.655 0v.5h.5v-.5h-.5Zm0-16.878h.5v-.5h-.5v.5Zm-40.655 0v-.5h-.5v.5h.5Zm18.94-40.206h.5v-.5h-.5v.5Zm-31.776 0v-.5h-.5v.5h.5Zm0 4.56h-.5v.5h.5v-.5Zm31.776 0v.5h.5v-.5h-.5Zm10.805-4.55h.5v-.5h-.5v.5Zm-7.982 0v-.5h-.5v.5h.5Zm0 4.565h-.5v.5h.5v-.5Zm7.982 0v.5h.5v-.5h-.5Zm1.567-6.909c.29.158.454.34.555.546.105.215.158.495.156.872l1 .005c.002-.464-.06-.912-.258-1.316-.2-.413-.524-.74-.974-.985l-.479.878Zm.711 1.418c-.027 5.561-.014 11.122-.014 16.68h1c0-5.561-.013-11.117.014-16.675l-1-.005Zm-.014 16.68c0 .216.008.35-.007.497l.995.1c.021-.213.012-.448.012-.597h-1Zm-.007.5c-.048.508-.41.83-.852.834l.01 1c.987-.01 1.746-.757 1.837-1.74l-.995-.093Zm-.852.834c-.469.005-.844-.331-.867-.847l-1 .044c.047 1.048.863 1.813 1.877 1.803l-.01-1Zm-.867-.846c-.03-.714-.01-1.419-.01-2.167h-1c0 .711-.02 1.468.01 2.21l1-.044Zm-.01-2.167v-6.684h-1v6.684h1Zm-.5-7.184H14.722v1h42.605v-1Zm-43.105.5v3.762h1v-3.762h-1Zm.5 4.262h.813v-1h-.813v1Zm.813 0h29.801v-1H15.535v1Zm29.8 0c.725 0 1.005.11 1.136.24.13.128.24.401.24 1.118h1c0-.735-.094-1.39-.536-1.829-.441-.436-1.1-.529-1.84-.529v1Zm1.376 1.358v18.728h1V16.794h-1Zm0 18.728c0 .687-.112.967-.245 1.1-.131.133-.404.247-1.081.247v1c.718 0 1.359-.105 1.792-.543.432-.437.534-1.08.534-1.804h-1Zm-1.326 1.347H15.584v1h29.801v-1Zm-29.801 0h-.862v1h.862v-1Zm-1.362.5v30.856h1V37.37h-1Zm.5 31.356h42.572v-1H14.722v1Zm43.072-.5v-4.582h-1v4.582h1Zm-.5-5.082h-.886v1h.886v-1Zm-.886 0H26.744v1h29.664v-1Zm-29.664 0c-.808 0-1.09-.108-1.217-.237-.13-.132-.236-.425-.236-1.247h-1c0 .794.075 1.493.524 1.948.45.459 1.145.536 1.929.536v-1Zm-1.453-1.484V43h-1v18.659h1Zm0-18.659c0-.64.116-.91.25-1.042.137-.135.416-.25 1.068-.25v-1c-.708 0-1.337.111-1.77.538-.434.428-.548 1.054-.548 1.754h1Zm1.318-1.292H56.41v-1H26.609v1Zm29.8 0h.921v-1h-.92v1Zm1.421-.5v-.747h-1v.747h1Zm0-.747c0-2.645-.003-5.286.002-7.927l-1-.002c-.005 2.642-.002 5.286-.002 7.929h1Zm.002-7.928c0-.34.072-.568.173-.72a.808.808 0 0 1 .471-.325l-.283-.959c-.425.126-.78.367-1.022.732-.237.358-.339.795-.339 1.272h1Zm.645-1.045a.761.761 0 0 1 .734.141c.194.164.348.454.35.854l1-.006c-.004-.657-.262-1.237-.704-1.611a1.76 1.76 0 0 0-1.665-.337l.285.96Zm1.084.994c.01 2.642.003 5.282.003 7.926h1c0-2.64.008-5.285-.003-7.93l-1 .004Zm.003 7.926v.802h1v-.802h-1Zm.5 1.302h1.96v-1h-1.96v1Zm1.96 0c2.362 0 4.743.025 7.117-.015l-.017-1c-2.363.04-4.724.015-7.1.015v1Zm7.118-.015c.368-.006.647.047.865.152.21.102.399.27.562.557l.869-.496c-.252-.44-.582-.76-.994-.96-.405-.197-.854-.26-1.32-.253l.018 1Zm1.361.461v20.508h1V42.156h-1Zm.049 20.292c-.142.298-.315.462-.51.56-.208.104-.484.155-.86.151l-.01 1c.46.005.913-.055 1.317-.257.417-.21.739-.548.965-1.023l-.902-.43Zm-1.369.711c-2.775-.035-5.553-.013-8.319-.013v1c2.777 0 5.54-.022 8.307.013l.012-1Zm-8.319-.013h-.8v1h.8v-1Zm-1.3.5c0 1.873-.032 3.702.015 5.519l1-.027c-.047-1.8-.015-3.595-.015-5.492h-1Zm.015 5.519c.01.368-.044.642-.15.853-.102.204-.271.388-.562.547l.48.877c.444-.243.771-.566.977-.977.202-.404.267-.854.255-1.327l-1 .027Zm-.472 1.339H12.894v1h46.213v-1Zm-45.974.06c-.29-.157-.454-.339-.554-.544-.105-.215-.158-.495-.157-.873l-1-.002c-.001.463.062.91.258 1.313.202.413.524.74.975.985l.478-.879Zm-.711-1.417c.022-10.318.014-20.637.014-30.954h-1c0 10.318.008 20.635-.014 30.952l1 .002Zm.014-30.954v-.822h-1v.822h1Zm-.5-1.322c-3.149 0-6.198.002-9.247 0v1c3.048.002 6.1 0 9.247 0v-1Zm-9.247 0c-.555 0-.81-.115-.941-.247-.133-.135-.247-.398-.247-.961h-1c0 .658.126 1.249.535 1.663.41.416.999.545 1.653.545v-1Zm-1.188-1.208V16.599h-1v19.064h1Zm0-19.064c0-.534.113-.785.243-.914.13-.13.383-.242.92-.243l-.001-1c-.641 0-1.219.13-1.625.534C.63 15.382.5 15.96.5 16.6h1Zm1.163-1.157c2.551-.004 5.1 0 7.652 0v-1c-2.55 0-5.101-.004-7.653 0l.001 1Zm7.652 0h1.621v-1h-1.621v1Zm2.12-.5v-.802h-1v.802h1Zm0-.802c0-3.756.02-7.518-.014-11.28l-1 .01c.035 3.755.014 7.507.014 11.27h1Zm-.014-11.28c-.003-.376.05-.655.154-.87.1-.204.265-.386.556-.543l-.476-.88c-.452.245-.776.571-.978.985-.198.404-.26.853-.256 1.317l1-.009Zm.472-1.353h46.212v-1H12.893v1Zm46.712-.5V1h-1v.007h1ZM3.764 35.085h40.66v-1H3.764v1Zm41.16-.5V17.707h-1v16.878h1Zm-.5-17.378H3.764v1h40.66v-1Zm-41.16.5v16.878h1V17.707h-1Zm24.29 43.65H68.21v-1H27.555v1Zm41.155-.5V43.98h-1v16.878h1Zm-.5-17.378H27.555v1H68.21v-1Zm-41.155.5v16.878h1V43.98h-1Zm19.44-40.706H14.718v1h31.776v-1Zm-32.276.5v4.56h1v-4.56h-1Zm.5 5.06h31.776v-1H14.718v1Zm32.276-.5v-4.56h-1v4.56h1Zm10.305-5.05h-7.982v1H57.3v-1Zm-8.482.5v4.565h1V3.784h-1Zm.5 5.065H57.3v-1h-7.982v1Zm8.482-.5V3.784h-1v4.564h1Z" mask="url(#a)"/>
    </symbol>
    <symbol id="Vector" width="6" height="6" fill="none" viewBox="0 0 6 6">
      <path fill="#FD6F00" stroke="#FD6F00" d="M2.695 5.012c1.03 0 1.887-.88 1.862-1.91l-1.952-1.81a1.87 1.87 0 0 0-1.77 1.9c.024.993.865 1.82 1.86 1.82Zm1.862-1.91a1.869 1.869 0 0 0-1.952-1.81l1.952 1.81Z"/>
    </symbol>
    <symbol id="Vector" width="13" height="10" fill="none" viewBox="0 0 13 10">
      <path fill="#000" d="M6.71.499c1.525 0 3.048-.006 4.574.002 1.077.005 1.578.51 1.581 1.596.008 2.026.008 4.05 0 6.074-.003 1.112-.513 1.62-1.642 1.621-3.002.005-6.005.005-9.01 0C1.083 9.79.568 9.285.563 8.179a961.81 961.81 0 0 1 0-6.074C.569.989 1.067.502 2.207.499c1.501-.006 3.003 0 4.504 0Zm3.385 6.53V3.274H3.346v3.753h6.748Z"/>
    </symbol>
    <symbol id="Vector" width="18" height="4" fill="none" viewBox="0 0 18 4">
      <path fill="#000" d="M9.185 3.231H2.633c-.182 0-.365.008-.546-.003C1.265 3.173.688 2.59.701 1.837.71 1.073 1.289.515 2.13.504 3.382.488 4.633.5 5.884.5h9.622c1.502 0 2.154.42 2.137 1.38-.016.931-.672 1.352-2.111 1.352H9.185Z"/>
    </symbol>
    <symbol id="Vector" width="18" height="3" fill="none" viewBox="0 0 18 3">
      <path fill="#000" d="M9.205.063c2.343 0 4.687-.009 7.028.006.835.005 1.41.583 1.41 1.35 0 .73-.555 1.302-1.338 1.37-.181.014-.364.007-.546.007H2.588c-.137 0-.274.003-.41 0C1.305 2.76.704 2.2.702 1.425.7.635 1.29.072 2.175.069 4.518.058 6.86.065 9.203.067l.002-.004Z"/>
    </symbol>
    <symbol id="Vector" width="13" height="11" fill="none" viewBox="0 0 13 11">
      <path fill="#000" d="M6.48 10.064c-1.525 0-3.049.007-4.574-.002C.871 10.057.36 9.542.354 8.503a765.24 765.24 0 0 1 0-6.143C.357 1.292.878.772 1.956.77c3.026-.007 6.05-.007 9.077 0 1.113.002 1.619.518 1.622 1.64a878.13 878.13 0 0 1 0 6.073c-.003 1.074-.515 1.573-1.602 1.579-1.525.007-3.048 0-4.573 0v.002ZM3.117 7.28h6.747V3.54H3.117v3.74Z"/>
    </symbol>
    <symbol id="Vector" width="18" height="4" fill="none" viewBox="0 0 18 4">
      <path fill="#000" d="M8.955 3.503c-2.274 0-4.55.004-6.824 0C1.119 3.501.509 2.998.491 2.171.473 1.329 1.119.773 2.146.773c4.55-.004 9.1-.004 13.647 0 1.001 0 1.622.52 1.64 1.343.019.85-.613 1.385-1.653 1.387-2.274.004-4.55 0-6.823 0h-.002Z"/>
    </symbol>
    <symbol id="Vector" width="18" height="4" fill="none" viewBox="0 0 18 4">
      <path fill="#000" d="M8.97 3.066c-2.275 0-4.55.002-6.824 0C1.1 3.066.474 2.533.49 1.68.507.864 1.136.335 2.129.335c4.572-.004 9.144-.004 13.717 0 .895 0 1.476.454 1.578 1.192.09.638-.321 1.296-.957 1.473-.236.066-.495.064-.743.064-2.252.004-4.504.002-6.756.002h.001Z"/>
    </symbol>
  </defs>
</svg>
